<svg width="708" height="708" viewBox="0 0 708 708" fill="none" xmlns="http://www.w3.org/2000/svg">
<g clip-path="url(#clip0_3_23)">
<path d="M188.354 519.238C182.084 525.466 171.907 525.463 166.096 518.805C129.857 477.287 108.3 424.768 105.063 369.402C101.825 314.022 117.12 259.264 148.281 213.667C153.265 206.372 163.365 205.164 170.327 210.602L170.671 210.87C177.638 216.31 178.818 226.338 173.901 233.683C147.579 273.005 134.697 319.961 137.472 367.443C140.248 414.917 158.506 459.983 189.215 495.854C194.961 502.566 194.977 512.659 188.709 518.886L188.354 519.238Z" fill="#F4B400"/>
<path d="M518.892 520.032C525.119 526.302 525.115 536.476 518.461 542.289C476.865 578.622 424.269 600.264 368.838 603.559C313.407 606.855 258.617 591.599 213.009 560.45C205.712 555.467 204.504 545.364 209.943 538.401L210.251 538.007C215.691 531.043 225.716 529.863 233.061 534.777C272.393 561.091 319.38 573.943 366.909 571.117C414.438 568.291 459.572 549.961 495.507 519.173C502.218 513.423 512.313 513.408 518.54 519.677L518.892 520.032Z" fill="#DB4437"/>
<path d="M189.836 188.63C183.611 182.361 183.614 172.187 190.267 166.374C231.853 130.031 284.415 108.358 339.79 105.01C395.152 101.663 449.856 116.845 495.377 147.907C502.678 152.889 503.887 162.993 498.445 169.958L498.137 170.351C492.697 177.312 482.674 178.492 475.329 173.583C436.071 147.341 389.156 134.552 341.684 137.421C294.206 140.291 249.105 158.647 213.178 189.443C206.467 195.195 196.371 195.211 190.143 188.939L189.836 188.63Z" fill="#0F9D58"/>
<path d="M520.032 189.108C526.302 182.881 536.477 182.885 542.289 189.539C578.622 231.135 600.264 283.731 603.559 339.162C606.855 394.593 591.599 449.383 560.45 494.991C555.467 502.288 545.365 503.496 538.401 498.056L538.007 497.749C531.044 492.309 529.863 482.283 534.777 474.938C561.091 435.607 573.942 388.62 571.117 341.091C568.291 293.562 549.961 248.428 519.173 212.493C513.423 205.782 513.408 195.687 519.677 189.46L520.032 189.108Z" fill="#4285F4"/>
</g>
<defs>
<clipPath id="clip0_3_23">
<rect width="500" height="500" fill="white" transform="translate(707.131 336.713) rotate(132.197)"/>
</clipPath>
</defs>
</svg>
