<?xml version="1.0" encoding="utf-8"?>
<!-- Generator: Adobe Illustrator 27.5.0, SVG Export Plug-In . SVG Version: 6.00 Build 0)  -->
<svg version="1.1" xmlns="http://www.w3.org/2000/svg" xmlns:xlink="http://www.w3.org/1999/xlink" x="0px" y="0px"
	 viewBox="0 0 500 500" style="enable-background:new 0 0 500 500;" xml:space="preserve">
<g id="Clock">
	<g>
		<g>
			<g>
				<g>
					<g>
						
							<rect x="360.938" y="52.725" transform="matrix(-1.836970e-16 1 -1 -1.836970e-16 515.2335 -311.9991)" style="fill:#FFFFFF;stroke:#EC644E;stroke-width:2.5;stroke-linecap:round;stroke-linejoin:round;stroke-miterlimit:10;" width="105.357" height="97.785"/>
						
							<rect x="369.975" y="54.19" transform="matrix(-1 -1.224647e-16 1.224647e-16 -1 827.2326 203.2347)" style="fill:none;stroke:#EC644E;stroke-width:2.5;stroke-linecap:round;stroke-linejoin:round;stroke-miterlimit:10;" width="87.283" height="94.855"/>
					</g>
				</g>
				
					<line style="fill:none;stroke:#EC644E;stroke-width:2.5;stroke-linecap:round;stroke-linejoin:round;stroke-miterlimit:10;" x1="425.905" y1="128.041" x2="401.328" y2="128.041"/>
				
					<line style="fill:none;stroke:#EC644E;stroke-width:2.5;stroke-linecap:round;stroke-linejoin:round;stroke-miterlimit:10;" x1="437.025" y1="132.675" x2="390.207" y2="132.675"/>
				
					<polygon style="fill:#FFFFFF;stroke:#EC644E;stroke-width:2.5;stroke-linecap:round;stroke-linejoin:round;stroke-miterlimit:10;" points="
					393.996,85.864 393.996,98.104 407.496,98.104 407.496,111.604 419.736,111.604 419.736,98.104 433.236,98.104 433.236,85.864 
					419.736,85.864 419.736,72.364 407.496,72.364 407.496,85.864 				"/>
			</g>
		</g>
		<g>
			<g>
				<g>
					<g>
						
							<rect x="360.938" y="177.535" transform="matrix(-1.836970e-16 1 -1 -1.836970e-16 640.0432 -187.1894)" style="fill:#FFFFFF;stroke:#EC644E;stroke-width:2.5;stroke-linecap:round;stroke-linejoin:round;stroke-miterlimit:10;" width="105.357" height="97.785"/>
						
							<rect x="369.975" y="178.999" transform="matrix(-1 -1.224647e-16 1.224647e-16 -1 827.2326 452.8543)" style="fill:none;stroke:#EC644E;stroke-width:2.5;stroke-linecap:round;stroke-linejoin:round;stroke-miterlimit:10;" width="87.283" height="94.855"/>
					</g>
				</g>
				
					<line style="fill:none;stroke:#EC644E;stroke-width:2.5;stroke-linecap:round;stroke-linejoin:round;stroke-miterlimit:10;" x1="425.905" y1="252.851" x2="401.328" y2="252.851"/>
				
					<line style="fill:none;stroke:#EC644E;stroke-width:2.5;stroke-linecap:round;stroke-linejoin:round;stroke-miterlimit:10;" x1="437.025" y1="257.484" x2="390.207" y2="257.484"/>
				
					<path style="fill:#FFFFFF;stroke:#EC644E;stroke-width:2.5;stroke-linecap:round;stroke-linejoin:round;stroke-miterlimit:10;" d="
					M414.52,236.754c15.08-7.358,23.247-21.869,17.176-29.648c-5.547-7.119-13.315-3.326-17.176,2.916
					c-3.861-6.242-11.618-10.035-17.165-2.916C391.284,214.885,399.439,229.396,414.52,236.754z"/>
				
					<polyline style="fill:none;stroke:#EC644E;stroke-width:2.5;stroke-linecap:round;stroke-linejoin:round;stroke-miterlimit:10;" points="
					437.025,222.716 422.235,222.716 420.406,215.899 417.246,228.536 413.88,218.559 412.092,222.675 390.207,222.675 				"/>
			</g>
		</g>
	</g>
</g>
<g id="Door">
	<g>
		
			<rect x="-64.917" y="160.565" transform="matrix(6.123234e-17 -1 1 6.123234e-17 -103.8554 411.8813)" style="fill:#FFFFFF;stroke:#9ABAE3;stroke-width:2.5;stroke-linecap:round;stroke-linejoin:round;stroke-miterlimit:10;" width="437.859" height="194.606"/>
		
			<rect x="67.211" y="50.454" style="fill:#FFFFFF;stroke:#9ABAE3;stroke-width:2.5;stroke-linecap:round;stroke-linejoin:round;stroke-miterlimit:10;" width="173.605" height="426.059"/>
		
			<rect x="214.853" y="255.314" style="fill:#FFFFFF;stroke:#9ABAE3;stroke-width:2.5;stroke-linecap:round;stroke-linejoin:round;stroke-miterlimit:10;" width="8.093" height="46.4"/>
		
			<rect x="120.665" y="98.989" style="fill:#FFFFFF;stroke:#9ABAE3;stroke-width:2.5;stroke-linecap:round;stroke-linejoin:round;stroke-miterlimit:10;" width="66.696" height="23.359"/>
	</g>
</g>
<g id="Floor">
	
		<line style="fill:none;stroke:#263238;stroke-width:2.5;stroke-linecap:round;stroke-linejoin:round;stroke-miterlimit:10;" x1="48.665" y1="476.798" x2="451.335" y2="476.798"/>
</g>
<g id="Character_1">
	<g>
		<g>
			<g>
				<g>
					<g>
						<polygon style="fill:#FFFFFF;" points="183.329,458.501 183.329,476.798 249.426,476.798 228.613,458.501 						"/>
						
							<polygon style="fill:none;stroke:#263238;stroke-width:2.5;stroke-linecap:round;stroke-linejoin:round;stroke-miterlimit:10;" points="
							183.329,458.501 183.329,476.798 249.426,476.798 228.613,458.501 						"/>
					</g>
					<g>
						
							<polygon style="fill:#9ABAE3;stroke:#263238;stroke-width:2.5;stroke-linecap:round;stroke-linejoin:round;stroke-miterlimit:10;" points="
							229.542,436.547 228.614,458.5 183.324,458.5 180.252,436.547 						"/>
						
							<line style="fill:none;stroke:#263238;stroke-width:2.5;stroke-linecap:round;stroke-linejoin:round;stroke-miterlimit:10;" x1="186.759" y1="442.835" x2="229.337" y2="442.835"/>
					</g>
					
						<line style="fill:none;stroke:#263238;stroke-width:2.5;stroke-linecap:round;stroke-linejoin:round;stroke-miterlimit:10;" x1="219.286" y1="463.652" x2="232.794" y2="459.552"/>
					
						<line style="fill:none;stroke:#263238;stroke-width:2.5;stroke-linecap:round;stroke-linejoin:round;stroke-miterlimit:10;" x1="222.788" y1="466.547" x2="236.296" y2="462.446"/>
				</g>
				<g>
					<path style="fill:#EC644E;" d="M167.888,226.427h59.433c4.735,28.007,11.529,107.171,10.843,115.176
						c-0.55,6.42,1.17,80.323,2.506,102.235c0.33,5.408-4.799,10.579-4.799,10.579s4.64-7.149-36.604-0.164
						c-7.806,1.322-22.232,1.573-23.891-5.378c-0.791-3.314,1.579-11.294,1.579-11.294c-0.814-15.401,0.54-44.264-0.158-61.727
						c-0.915-22.871,4.382-33.589,4.382-33.589c-1.96-11.024-2.965-38.548-6.388-63.504L167.888,226.427z"/>
					<path style="fill:#FFFFFF;" d="M232.615,443.842c0.171,2.774-1.102,5.491-2.384,7.476c6.992,0.56,5.757,2.907,5.652,3.087
						c0.294-0.304,5.111-5.32,4.788-10.564c-1.34-21.916-3.059-95.815-2.508-102.237c0.684-8.008-6.108-87.17-10.839-115.175h-8.056
						c4.731,28.005,11.523,107.167,10.839,115.175C229.556,348.027,231.275,421.926,232.615,443.842z"/>
					
						<path style="fill:none;stroke:#263238;stroke-width:2.5;stroke-linecap:round;stroke-linejoin:round;stroke-miterlimit:10;" d="
						M167.888,226.427h59.433c4.735,28.007,11.529,107.171,10.843,115.176c-0.55,6.42,1.17,80.323,2.506,102.235
						c0.33,5.408-4.799,10.579-4.799,10.579s4.64-7.149-36.604-0.164c-7.806,1.322-22.232,1.573-23.891-5.378
						c-0.791-3.314,1.579-11.294,1.579-11.294c-0.814-15.401,0.54-44.264-0.158-61.727c-0.915-22.871,4.382-33.589,4.382-33.589
						c-1.96-11.024-2.965-38.548-6.388-63.504L167.888,226.427z"/>
					<path style="fill:#263238;" d="M227.82,450.372l-0.028,5.852c0,0,7.475,1.143,8.922-1.196
						C238.162,452.689,227.82,450.372,227.82,450.372z"/>
					
						<path style="fill:none;stroke:#263238;stroke-width:2.5;stroke-linecap:round;stroke-linejoin:round;stroke-miterlimit:10;" d="
						M211.08,234.711c0,0,1.396,20.378,14.297,16.429"/>
				</g>
			</g>
			<g>
				<g>
					<g>
						<polygon style="fill:#FFFFFF;" points="147.601,458.501 147.601,476.798 81.503,476.798 102.316,458.501 						"/>
						
							<polygon style="fill:none;stroke:#263238;stroke-width:2.5;stroke-linecap:round;stroke-linejoin:round;stroke-miterlimit:10;" points="
							147.601,458.501 147.601,476.798 81.503,476.798 102.316,458.501 						"/>
					</g>
					<g>
						
							<polygon style="fill:#9ABAE3;stroke:#263238;stroke-width:2.5;stroke-linecap:round;stroke-linejoin:round;stroke-miterlimit:10;" points="
							105.825,436.547 102.316,458.5 147.605,458.5 154.013,436.547 						"/>
						
							<line style="fill:none;stroke:#263238;stroke-width:2.5;stroke-linecap:round;stroke-linejoin:round;stroke-miterlimit:10;" x1="145.471" y1="442.835" x2="104.889" y2="442.835"/>
					</g>
					
						<line style="fill:none;stroke:#263238;stroke-width:2.5;stroke-linecap:round;stroke-linejoin:round;stroke-miterlimit:10;" x1="111.643" y1="463.652" x2="98.135" y2="459.552"/>
					
						<line style="fill:none;stroke:#263238;stroke-width:2.5;stroke-linecap:round;stroke-linejoin:round;stroke-miterlimit:10;" x1="108.141" y1="466.547" x2="94.633" y2="462.446"/>
				</g>
				<g>
					
						<path style="fill:#EC644E;stroke:#263238;stroke-width:2.5;stroke-linecap:round;stroke-linejoin:round;stroke-miterlimit:10;" d="
						M193.716,268.176c-4.265,1.895-10.611,4.146-11.132,7.386c-5.36,33.385-11.397,65.147-11.397,65.147s-1.199,12.907-1.68,23.029
						c-1.011,21.271-7.768,53.536-11.317,72.75c0,0,1.336,11.896-1.223,15.05c-3.152,3.885-5.055,1.608-18.94,0.449
						c-42.507-3.548-41.441,0.644-41.441,0.644s-8.45-4.955-6.044-14.509c8.55-33.953,17.613-85.125,19.136-96.288
						c0.724-5.306,19.039-115.408,19.039-115.408h60.732"/>
					<path style="fill:#263238;" d="M105.185,450.295l-0.626,4.39c0,0-7.746,0.715-8.976-1.625
						C94.354,450.721,105.185,450.295,105.185,450.295z"/>
					
						<path style="fill:none;stroke:#263238;stroke-width:2.5;stroke-linecap:round;stroke-linejoin:round;stroke-miterlimit:10;" d="
						M157.291,234.711c0,0-2.119,20.378-21.705,16.429"/>
					
						<path style="fill:none;stroke:#263238;stroke-width:2.5;stroke-linecap:round;stroke-linejoin:round;stroke-miterlimit:10;" d="
						M195.089,231.847c0,0,0.892,25.746-0.714,28.274c-1.606,2.527-8.398,3.949-9.03,3.475c-0.632-0.474,0-31.749,0-31.749"/>
				</g>
				
					<path style="fill:#EC644E;stroke:#263238;stroke-width:2.5;stroke-linecap:round;stroke-linejoin:round;stroke-miterlimit:10;" d="
					M109.651,322.754h12.524l-5.771,38.982c0,0-11.433,0.871-12.522,0C102.793,360.866,109.651,322.754,109.651,322.754z"/>
			</g>
		</g>
		<g>
			<g>
				<g>
					<g>
						
							<path style="fill:#B5846B;stroke:#263238;stroke-width:2.5;stroke-linecap:round;stroke-linejoin:round;stroke-miterlimit:10;" d="
							M209.39,168.456c0,0,23.093,47.189,49.327,44.139c16.184-1.882,52.694-32.01,53.091-32.285
							c5.265-3.645,17.734-8.801,15.697-13.483c-1.423-3.271-11.58-0.486-11.58-0.486s14.172-7.096,11.955-11.184
							c-1.799-3.318-16.668,2.409-16.668,2.409s13.092-7.336,11.014-10.653c-2.458-3.923-12.208,1.677-25.058,5.04
							c-2.947,0.771-26.164,13.187-40.337,19.55c-3.306,1.484-17.8-17.995-17.8-17.995L209.39,168.456z"/>
						
							<path style="fill:#B5846B;stroke:#263238;stroke-width:2.5;stroke-linecap:round;stroke-linejoin:round;stroke-miterlimit:10;" d="
							M290.368,155.898c0,0,4.436-5.705,5.733-7.834c1.205-1.979,2.698-5.181,3.391-6.431c1.615-2.912,5.746-1.985,5.333,4.479
							c-0.215,3.366-0.701,3.117-1.378,7.67c0,0,4.011,5.272,1.882,11.564"/>
					</g>
				</g>
				<g>
					<path style="fill:#EC644E;" d="M197.256,128.788c9.908-1.289,22.739,0.047,30.874,7.641s24.889,22.426,25.926,25.302
						c1.23,3.41-0.46,5.919-0.46,5.919s-1.687-5.992-8.063-2.762c-6.377,3.23-22.997,17.163-32.945,17.277l-6.293-12.783"/>
					<path style="fill:#FFFFFF;" d="M253.598,167.648c0,0-1.156-4.112-5.191-3.68c-0.059-0.19-0.118-0.38-0.187-0.58
						c-1.049-2.926-18.083-18.061-26.37-25.796c-6.457-6.028-15.828-8.192-24.423-8.221c0,0,0,0-0.01-0.001l-0.157-0.579
						c9.903-1.29,22.74,0.04,30.867,7.638c8.137,7.59,24.891,22.424,25.933,25.301C255.281,165.138,253.598,167.648,253.598,167.648
						z"/>
					
						<path style="fill:none;stroke:#263238;stroke-width:2.5;stroke-linecap:round;stroke-linejoin:round;stroke-miterlimit:10;" d="
						M197.256,128.788c9.908-1.289,22.739,0.047,30.874,7.641s24.889,22.426,25.926,25.302c1.23,3.41-0.46,5.919-0.46,5.919
						s-1.687-5.992-8.063-2.762c-6.377,3.23-22.997,17.163-32.945,17.277l-6.293-12.783"/>
					<path style="fill:#263238;" d="M248.542,164.483l3.454,5.716c0,0,4.107-1.05,2.182-4.087
						C252.252,163.075,248.542,164.483,248.542,164.483z"/>
				</g>
			</g>
			<g>
				<g>
					
						<path style="fill:#EC644E;stroke:#263238;stroke-width:2.5;stroke-linecap:round;stroke-linejoin:round;stroke-miterlimit:10;" d="
						M202.385,127.964c-3.507-1.053-7.646-1.693-12.499-1.623c-15.144,0.218-21.525-5.422-34.684,5.348
						c-10.565,8.648-16.768,38.927-22.712,63.116c0,0-9.109,36.575-14.627,51.307c-3.239,8.646-0.757,12.875-0.067,13.322
						c0,0-0.065-2.478,5.131-3.013c0.742-0.077,4.586-17.162,5.558-17.146c0.693,0.011,1.227,17.24,2.05,17.309
						c20.716,1.739,57.482,12.964,101.463,4.133c5.619-1.128,3.579,4.604,3.579,4.604s5.107-1.628,4.846-6.569
						c-0.654-12.421-5.79-36.655-8.229-49.038c-2.454-12.459,0.118-30.406-4.835-51.803"/>
					
						<path style="fill:#EC644E;stroke:#263238;stroke-width:2.5;stroke-linecap:round;stroke-linejoin:round;stroke-miterlimit:10;" d="
						M223.066,215.881c0,0,0.757,32.095,1.787,33.62c1.03,1.525,8.163,2.762,9.155,2.542c0.993-0.22,6.741-2.777,6.389-4.086
						c-0.352-1.308-4.029-32.372-4.029-32.372L223.066,215.881z"/>
					
						<path style="fill:none;stroke:#263238;stroke-width:2.5;stroke-linecap:round;stroke-linejoin:round;stroke-miterlimit:10;" d="
						M140.531,211.141c0,0-2.645,31.72-1.712,33.258c0.933,1.538,33.334,4.842,35.446,3.315c2.112-1.527,3.107-33.617,3.107-33.617
						L140.531,211.141z"/>
				</g>
				<path style="fill:#263238;" d="M231.999,260.717l-0.325,6.307c0,0,5.38,0.633,4.81-3.118
					C235.914,260.154,231.999,260.717,231.999,260.717z"/>
				<path style="fill:#263238;" d="M116.996,260.196c1.418,1.52,4.549,1.695,4.549,1.695l1.1-5.018
					C122.645,256.873,115.342,258.423,116.996,260.196z"/>
				<path style="fill:none;stroke:#263238;stroke-width:2.5;stroke-linecap:round;stroke-linejoin:round;stroke-miterlimit:10;" d="
					M184.173,250.474c0,0,15.903,3.635,29.746-6.158"/>
				<path style="fill:none;stroke:#263238;stroke-width:2.5;stroke-linecap:round;stroke-linejoin:round;stroke-miterlimit:10;" d="
					M191.521,244.33c0,0,5.61,2.319,12.106,0.448"/>
			</g>
			<g>
				
					<path style="fill:#B5846B;stroke:#263238;stroke-width:2.5;stroke-linecap:round;stroke-linejoin:round;stroke-miterlimit:10;" d="
					M191.039,127.368c8.193,1.329,12.842,2.049,12.842,2.049s-2.822,6.871-8.179,10.861c0,0-11.516-4.137-16.705-14.44
					C178.997,125.837,181.363,125.798,191.039,127.368z"/>
				<g>
					
						<path style="fill:#9ABAE3;stroke:#263238;stroke-width:2.5;stroke-linecap:round;stroke-linejoin:round;stroke-miterlimit:10;" d="
						M202.718,159.016c0.277,2.751,2.731,4.757,5.483,4.481c2.751-0.277,4.757-2.731,4.481-5.482
						c-0.277-2.751-2.731-4.757-5.483-4.481C204.447,153.81,202.441,156.265,202.718,159.016z"/>
					
						<path style="fill:none;stroke:#263238;stroke-width:2.5;stroke-linecap:round;stroke-linejoin:round;stroke-miterlimit:10;" d="
						M208.211,152.668c-1.591-6.498-6.326-28.652-17.238-27.143c-5.444,0.753-9.631,3.874-11.539,22.981"/>
					
						<path style="fill:none;stroke:#263238;stroke-width:2.5;stroke-linecap:round;stroke-linejoin:round;stroke-miterlimit:10;" d="
						M183.765,189.841c4.595-8.484,3.339-42.713-5.138-40.314c-8.477,2.399-0.496,38.569-0.496,38.569"/>
					
						<path style="fill:#9ABAE3;stroke:#263238;stroke-width:2.5;stroke-linecap:round;stroke-linejoin:round;stroke-miterlimit:10;" d="
						M183.161,193.306l0.058,0.021c1.128,0.416,2.38-0.162,2.795-1.291l0.498-1.357c0.415-1.13-0.164-2.382-1.293-2.797
						l-0.058-0.021c-1.129-0.416-2.38,0.163-2.795,1.292l-0.498,1.355C181.453,191.638,182.032,192.89,183.161,193.306z"/>
					
						<path style="fill:#9ABAE3;stroke:#263238;stroke-width:2.5;stroke-linecap:round;stroke-linejoin:round;stroke-miterlimit:10;" d="
						M179.11,191.679l0.001,0c1.172-0.338,1.847-1.563,1.507-2.734l-0.386-1.33c-0.34-1.172-1.566-1.846-2.738-1.507l0,0
						c-1.172,0.339-1.846,1.565-1.506,2.736l0.385,1.327C176.714,191.342,177.938,192.016,179.11,191.679z"/>
				</g>
				<g>
					<path style="fill:#263238;" d="M195.575,129.199c0,0,2.685,6.088-0.532,6.186c-5.045,0.154-10.366-8.754-10.366-8.754
						L195.575,129.199z"/>
					<g>
						<g>
							
								<path style="fill:#B5846B;stroke:#263238;stroke-width:2.5;stroke-linecap:round;stroke-linejoin:round;stroke-miterlimit:10;" d="
								M180.758,115.396c-0.36-8.5,5.152-15.636,12.311-15.94c7.16-0.303,13.256,6.341,13.616,14.841
								c0.36,8.5-5.152,15.636-12.311,15.94C187.215,130.541,181.119,123.896,180.758,115.396z"/>
							<path style="fill:#FFFFFF;" d="M194.374,130.238c-1.998,0.083-3.919-0.374-5.648-1.268c0.92,0.217,1.869,0.31,2.844,0.272
								c6.786-0.291,12.011-7.055,11.672-15.115c-0.344-8.061-6.124-14.357-12.908-14.071c-0.171,0.009-0.347,0.017-0.515,0.037
								c1.031-0.37,2.122-0.59,3.252-0.636c7.157-0.302,13.254,6.342,13.615,14.842
								C207.046,122.798,201.536,129.932,194.374,130.238z"/>
							
								<path style="fill:none;stroke:#263238;stroke-width:2.5;stroke-linecap:round;stroke-linejoin:round;stroke-miterlimit:10;" d="
								M180.758,115.396c-0.36-8.5,5.152-15.636,12.311-15.94c7.16-0.303,13.256,6.341,13.616,14.841
								c0.36,8.5-5.152,15.636-12.311,15.94C187.215,130.541,181.119,123.896,180.758,115.396z"/>
						</g>
					</g>
					<path style="fill:#263238;" d="M206.175,100.96c1.243,0.552,2.334,1.503,3.068,2.834c1.271,2.307,1.009,5.242-0.665,7.274
						c-2.69,3.264-7.524,3.172-10.119,0.096c-0.936-1.109-1.441-2.441-1.524-3.781c-0.049-0.781-0.579-1.439-1.32-1.69
						c-0.97-0.329-1.985-0.904-2.862-1.82c-0.643-0.672-1.654-0.862-2.445-0.372c-0.713,0.442-2.406,1.116-3.706,0.858
						c-0.906-0.18-5.549,4.151-4.924,7.946c-0.784,0.477-1.386,0.619-3.409-1.378c-4.586-4.525-0.679-9.301,1.036-10.946
						c0.48-0.461,0.678-1.123,0.569-1.78c-0.558-3.359,1.283-7.033,5.321-8.181c3.256-0.926,5.703,0.85,6.998,2.22
						c0.602,0.637,1.568,0.752,2.337,0.331c2.882-1.578,6.662-0.866,8.854,1.734c1.197,1.419,1.748,3.166,1.675,4.882
						C205.027,99.946,205.482,100.652,206.175,100.96z"/>
					<path style="fill:#263238;" d="M172.39,104.577c1.454,0.299,1.779-1.636,2.797-3.584c0.848-1.623,2.326-2.82,1.485-4.016
						c-0.872-1.241-2.596-1.037-4.35,1.431C170.673,100.729,170.623,104.214,172.39,104.577z"/>
				</g>
			</g>
			<g>
				<g>
					<g>
						
							<path style="fill:#B5846B;stroke:#263238;stroke-width:2.5;stroke-linecap:round;stroke-linejoin:round;stroke-miterlimit:10;" d="
							M157.996,171.504c0,0-16.235,37.395-25.205,44.174c-12.333,9.321-50.636,24.987-51.052,25.232
							c-5.521,3.244-15.444,12.388-18.835,8.571c-2.369-2.667,4.429-10.711,4.429-10.711s-12.399,9.873-15.175,6.143
							c-2.253-3.028,9.196-14.108,9.196-14.108s-12.162,8.792-14.298,5.512c-2.526-3.88,6.656-10.37,15.111-20.614
							c1.939-2.349,31.049-18.196,44.071-26.029c3.105-1.868,19.125-32.562,19.125-32.562L157.996,171.504z"/>
						
							<path style="fill:#B5846B;stroke:#263238;stroke-width:2.5;stroke-linecap:round;stroke-linejoin:round;stroke-miterlimit:10;" d="
							M68.607,211.19c0,0-7.042,1.625-9.519,1.906c-2.302,0.261-5.835,0.269-7.26,0.372c-3.321,0.241-4.218,4.378,1.82,6.722
							c3.144,1.221,3.122,0.675,7.539,1.975c0,0,3.096,5.857,9.7,6.571"/>
					</g>
				</g>
				<g>
					<g>
						
							<path style="fill:#EC644E;stroke:#263238;stroke-width:2.5;stroke-linecap:round;stroke-linejoin:round;stroke-miterlimit:10;" d="
							M177.267,125.451c-9.405-1.483-24.067-2.418-33.054,4.796c-8.988,7.215-25.595,27.32-26.864,30.19
							c-1.505,3.402,0.098,6.08,0.098,6.08s2.149-6.01,8.602-2.282c6.453,3.728,22.466,16.003,32.851,16.787l5.701-14.549"/>
						<path style="fill:#263238;" d="M122.931,163.62l-2.958,6.372c0,0-5.242-2.111-3.035-5.085
							C119.146,161.932,122.931,163.62,122.931,163.62z"/>
						
							<path style="fill:none;stroke:#263238;stroke-width:2.5;stroke-linecap:round;stroke-linejoin:round;stroke-miterlimit:10;" d="
							M162.365,172.496c0,0,3.214-2.727,6.163-1.789"/>
					</g>
				</g>
			</g>
		</g>
	</g>
</g>
<g id="Character_2">
	<g>
		<g>
			
				<path style="fill:#FFFFFF;stroke:#263238;stroke-width:2.5;stroke-linecap:round;stroke-linejoin:round;stroke-miterlimit:10;" d="
				M261.645,263.603h-40.859c-11.012,0-20.19,8.424-21.138,19.385l-15.769,181.814h9.555l3.168-36.703h76.686v37.345h9.565V284.811
				C282.854,273.097,273.36,263.603,261.645,263.603z M209.132,282.682c0.469-5.389,4.981-9.525,10.39-9.525h43.345
				c5.755,0,10.421,4.665,10.421,10.421v17.531h-65.745L209.132,282.682z M273.289,418.533h-75.779l9.127-107.858h66.652V418.533z"
				/>
			
				<circle style="fill:#263238;stroke:#263238;stroke-width:2.5;stroke-linecap:round;stroke-linejoin:round;stroke-miterlimit:10;" cx="188.145" cy="463" r="13.798"/>
			
				<polygon style="fill:#263238;stroke:#263238;stroke-width:2.5;stroke-linecap:round;stroke-linejoin:round;stroke-miterlimit:10;" points="
				284.238,476.798 271.627,476.798 272.645,458.239 283.22,458.239 			"/>
		</g>
		<g>
			<g>
				<g>
					
						<polygon style="fill:#EC644E;stroke:#263238;stroke-width:2.5;stroke-linecap:round;stroke-linejoin:round;stroke-miterlimit:10;" points="
						347.785,458.239 347.785,476.798 280.742,476.798 301.853,458.239 					"/>
				</g>
				
					<path style="fill:#FCD8C3;stroke:#263238;stroke-width:2.5;stroke-linecap:round;stroke-linejoin:round;stroke-miterlimit:10;" d="
					M355.872,316.9c0,0,3.722,16.935,0.01,37.814c0,0,4.078,16.574,3.15,39.773c-0.928,23.198-11.247,63.753-11.247,63.753
					s-29.485,10.097-41.404,10.097c-12.903,0-4.528-10.097-4.528-10.097s-1.879-76.616-2.575-84.735
					c-0.696-8.119-4.186-29.23-2.098-56.604H355.872z"/>
				<path style="fill:none;stroke:#263238;stroke-width:2.5;stroke-linecap:round;stroke-linejoin:round;stroke-miterlimit:10;" d="
					M321.138,352.589c0.928,1.33,0.928,6.855,0,8.697"/>
			</g>
			<g>
				<g>
					
						<polygon style="fill:#EC644E;stroke:#263238;stroke-width:2.5;stroke-linecap:round;stroke-linejoin:round;stroke-miterlimit:10;" points="
						410.059,458.239 410.059,476.798 343.016,476.798 364.126,458.239 					"/>
				</g>
				<path style="fill:#FCD8C3;" d="M408.146,316.9c0,0,3.722,16.935,0.01,37.814c0,0,7.078,21.574,6.15,44.773
					c-0.928,23.198-4.247,58.753-4.247,58.753s-29.485,10.097-41.404,10.097c-12.902,0-4.528-10.097-4.528-10.097
					s-11.879-76.616-12.575-84.735c-0.696-8.119-4.186-29.23-2.098-56.604H408.146z"/>
				<path style="fill:#FFFFFF;" d="M414.309,399.49c-0.93,23.19-4.25,58.75-4.25,58.75s-29.48,10.1-41.4,10.1
					c-1.32,0-2.42-0.11-3.33-0.3c13.48-1.66,37.25-9.8,37.25-9.8s3.31-35.56,4.24-58.75c0.93-23.2-6.15-44.78-6.15-44.78
					c3.71-20.88-0.01-37.81-0.01-37.81h7.49c0,0,3.72,16.93,0.01,37.81C408.159,354.71,415.239,376.29,414.309,399.49z"/>
				<path style="fill:none;stroke:#263238;stroke-width:2.5;stroke-linecap:round;stroke-linejoin:round;stroke-miterlimit:10;" d="
					M408.146,316.9c0,0,3.722,16.935,0.01,37.814c0,0,7.078,21.574,6.15,44.773c-0.928,23.198-4.247,58.753-4.247,58.753
					s-29.485,10.097-41.404,10.097c-12.902,0-4.528-10.097-4.528-10.097s-11.879-76.616-12.575-84.735
					c-0.696-8.119-4.186-29.23-2.098-56.604H408.146z"/>
				<path style="fill:none;stroke:#263238;stroke-width:2.5;stroke-linecap:round;stroke-linejoin:round;stroke-miterlimit:10;" d="
					M373.412,352.589c0.928,1.33,0.928,6.855,0,8.697"/>
			</g>
			<g>
				<g>
					<path style="fill:#263238;" d="M302.635,237.624c-11.341,55.927-11.345,136.252-11.345,136.252s10.336,9.453,47.968,8.714
						c59.917-1.177,75.438-27.789,78.826-10.174c0,0,3.796-2.868,2.526-11.265c-2.198-14.53-5.974-42.795-5.346-47.085
						c1.897-12.966-11.527-76.441-11.527-76.441H302.635z"/>
				</g>
				<g>
					<path style="fill:#FFFFFF;" d="M418.083,372.411c-0.764-3.973-1.454-4.63-4.123-4.579c0.03-1.345-0.061-2.883-0.326-4.605
						c-2.272-15.025-6.275-44.087-5.623-48.518c1.762-12.102-9.372-71.47-11.562-77.083h7.284c0,0,13.426,63.474,11.531,76.441
						c-0.632,4.289,3.148,32.555,5.348,47.082C421.885,369.543,418.083,372.411,418.083,372.411z"/>
				</g>
				<g>
					
						<path style="fill:none;stroke:#263238;stroke-width:2.5;stroke-linecap:round;stroke-linejoin:round;stroke-miterlimit:10;" d="
						M302.635,237.624c-11.341,55.927-11.345,136.252-11.345,136.252s10.336,9.453,47.968,8.714
						c59.917-1.177,75.438-27.789,78.826-10.174c0,0,3.796-2.868,2.526-11.265c-2.198-14.53-5.974-42.795-5.346-47.085
						c1.897-12.966-11.527-76.441-11.527-76.441H302.635z"/>
				</g>
				<path style="fill:none;stroke:#FFFFFF;stroke-width:2.5;stroke-linecap:round;stroke-linejoin:round;stroke-miterlimit:10;" d="
					M331.808,323.719c0,0,3.32,26.837,10.172,42.624"/>
				<path style="fill:none;stroke:#FFFFFF;stroke-width:2.5;stroke-linecap:round;stroke-linejoin:round;stroke-miterlimit:10;" d="
					M324.33,331.597c0,0,4.937,2.787,6.236,11.94"/>
				<path style="fill:#263238;" d="M411.352,367.287c-0.364,0.135,1.613,9.137,1.613,9.137s4.087-0.667,5.95-3.441
					C420.779,370.208,414.707,366.039,411.352,367.287z"/>
			</g>
		</g>
		<g>
			
				<path style="fill:#FFFFFF;stroke:#263238;stroke-width:2.5;stroke-linecap:round;stroke-linejoin:round;stroke-miterlimit:10;" d="
				M331.163,114.459c0,0-7.772,0.875-10.84,9.964c-3.068,9.089-2.619,19.976-0.74,22.613c5.653,7.932,25.162,6.872,32.035,0.554
				c6.872-6.318,1.884-23.112-4.234-29.596C342.106,112.403,331.163,114.459,331.163,114.459z"/>
			<g>
				<g>
					
						<path style="fill:#FCD8C3;stroke:#263238;stroke-width:2.5;stroke-linecap:round;stroke-linejoin:round;stroke-miterlimit:10;" d="
						M239.514,246.81c0,0-23.801,12.407-23.918,16.327c-0.101,3.353,3.412,4.865,16.539-0.063
						C245.261,258.147,239.514,246.81,239.514,246.81z"/>
					
						<path style="fill:#FCD8C3;stroke:#263238;stroke-width:2.5;stroke-linecap:round;stroke-linejoin:round;stroke-miterlimit:10;" d="
						M241.337,245.665c-6.279,3.892-10.621,8.023-15.17,12.894c-4.09,4.38-9.236,8.47-6.769,11.586
						c2.758,3.484,18.561-9.287,25.915-7.119c4.071,1.206,8.911,3.126,12.079,4.102c9.137,2.813,26.719-20.051,26.719-20.051
						l-30.114-17.186C253.998,229.892,244.862,243.475,241.337,245.665z"/>
					<g>
						
							<path style="fill:#FCD8C3;stroke:#263238;stroke-width:2.5;stroke-linecap:round;stroke-linejoin:round;stroke-miterlimit:10;" d="
							M264.344,265.337c-5.035,7.171-14.996,8.153-15.941,8.485c-0.945,0.332-9.461,9.297-13.887,6.868
							c-3.968-2.178,3.748-10.91,7-13.805c3.252-2.895,5.104-5.38,5.104-5.38"/>
						
							<path style="fill:none;stroke:#263238;stroke-width:2.5;stroke-linecap:round;stroke-linejoin:round;stroke-miterlimit:10;" d="
							M240.3,268.868c0,0,2.487,6.849-4.25,9.074"/>
					</g>
				</g>
				<g>
					<g>
						
							<path style="fill:#9ABAE3;stroke:#263238;stroke-width:2.5;stroke-linecap:round;stroke-linejoin:round;stroke-miterlimit:10;" d="
							M320.321,140.125c-7.282,1.022-13.326,2.388-19.046,8.932c-16.457,18.829-26.943,46.093-27.882,51.222
							c0,0-29.243,33.637-30.618,34.157c-1.375,0.519-0.659,4.615,8.81,13.276c9.47,8.661,21.4,6.278,22.619,15.804
							c0,0,5.047,1.867,10.295-4.022c10.62-11.917,23.487-29.654,24.984-31.648c5.406-7.202,15.355-35.308,15.355-35.308"/>
					</g>
				</g>
			</g>
			<g>
				<g>
					<path style="fill:#FFFFFF;" d="M326.415,139.905c0,0,15.88-1.455,21.567-0.68c15.876,2.163,12.249,118.674,12.445,121.635
						c0,0-30.046,7.822-51.148,3.167C309.28,264.026,294.254,171.582,326.415,139.905z"/>
					
						<path style="fill:none;stroke:#263238;stroke-width:2.5;stroke-linecap:round;stroke-linejoin:round;stroke-miterlimit:10;" d="
						M326.415,139.905c0,0,15.88-1.455,21.567-0.68c15.876,2.163,12.249,118.674,12.445,121.635c0,0-30.046,7.822-51.148,3.167
						C309.28,264.026,294.254,171.582,326.415,139.905z"/>
					
						<path style="fill:none;stroke:#263238;stroke-width:2.5;stroke-linecap:round;stroke-linejoin:round;stroke-miterlimit:10;" d="
						M312.993,258.973c6.325,0.936,25.408,0.547,41.884-2.973"/>
				</g>
				<g>
					<g>
						<g>
							<path style="fill:#9ABAE3;" d="M326.415,139.905c-5.668,0.057-5.995,1.384-11.06,4.744
								c-10.426,6.914-21.301,32.859-24.326,54.022c-0.81,5.667,2.053,9.512,2.209,10.491c1.307,8.202-6.112,61.956-3.461,69.219
								c0,0,1.516-2.075,4.251-1.671c2.735,0.404,14.085,3.35,20.508,1.727c0,0-6.602-62.174-4.119-89.261
								C313.734,152.968,326.415,139.905,326.415,139.905z"/>
						</g>
					</g>
					<g>
						<g>
							
								<path style="fill:none;stroke:#263238;stroke-width:2.5;stroke-linecap:round;stroke-linejoin:round;stroke-miterlimit:10;" d="
								M311.64,142.016c7.161-2.068,9.108-2.054,14.775-2.111c0,0-12.681,13.064-15.999,49.272
								c-2.483,27.087,4.119,89.261,4.119,89.261c-6.423,1.624-17.773-1.323-20.508-1.727c-2.735-0.404-4.251,1.671-4.251,1.671
								c-2.651-7.263,3.461-69.219,3.461-69.219s-8.039-0.841,3.65-29.08c1.334-3.222-2.137-7.204-2.137-7.204"/>
						</g>
					</g>
				</g>
				<g>
					<g>
						<path style="fill:#9ABAE3;" d="M356.15,273.727c-1.013,0.024-17.61-42.608-17.35-84.106
							c0.26-41.498,9.183-50.397,9.183-50.397s6.035-0.646,8.801-0.376c31.403,3.067,33.161,42.566,37.617,57.448
							c4.456,14.882,18.174,48.12,19.684,50.572c1.511,2.453,2.247,5.876,1.62,9.313c0,0-1.413-2.616-7.323,0.15
							C403.626,258.559,386.589,273,356.15,273.727z"/>
					</g>
					<g>
						<path style="fill:#FFFFFF;" d="M415.7,256.185c0,0-1.09-2.02-5.36-0.63c0.07-2.69-0.64-5.24-1.84-7.19
							c-1.51-2.45-15.23-35.69-19.68-50.57c-4.46-14.88-6.22-54.38-37.62-57.45c-1.05-0.1-2.56-0.07-4.05,0
							c0.51-0.8,0.83-1.12,0.83-1.12s6.04-0.65,8.8-0.38c31.41,3.07,33.16,42.57,37.62,57.45c4.46,14.88,18.17,48.12,19.68,50.57
							C415.6,249.325,416.33,252.745,415.7,256.185z"/>
					</g>
					<g>
						<path style="fill:#9ABAE3;" d="M410.34,255.555c-0.01,0.7-0.09,1.41-0.22,2.13c0,0-0.51-0.96-2.24-1.1
							c0.18-0.09,0.35-0.18,0.5-0.25C409.1,255.995,409.75,255.735,410.34,255.555z"/>
					</g>
					<g>
						
							<path style="fill:none;stroke:#263238;stroke-width:2.5;stroke-linecap:round;stroke-linejoin:round;stroke-miterlimit:10;" d="
							M356.15,273.727c-1.013,0.024-17.61-42.608-17.35-84.106c0.26-41.498,9.183-50.397,9.183-50.397s6.035-0.646,8.801-0.376
							c31.403,3.067,33.161,42.566,37.617,57.448c4.456,14.882,18.174,48.12,19.684,50.572c1.511,2.453,2.247,5.876,1.62,9.313
							c0,0-1.413-2.616-7.323,0.15C403.626,258.559,386.589,273,356.15,273.727z"/>
					</g>
					<path style="fill:#263238;" d="M416.221,255.199c-2.665-1.979-5.288-0.27-10.049,2.505l2.014,6.841
						C408.186,264.544,419.542,257.665,416.221,255.199z"/>
				</g>
			</g>
			<g>
				<path style="fill:#263238;" d="M329.793,143.787c0,0-3.452,5.375-0.415,5.947c4.763,0.896,11.135-6.762,11.135-6.762
					L329.793,143.787z"/>
				<g>
					<g>
						<path style="fill:#FCD8C3;" d="M321.789,126.545c-2.595,7.745,0.59,15.796,7.114,17.982
							c6.524,2.186,13.917-2.32,16.512-10.066c2.595-7.745-0.589-15.796-7.114-17.982
							C331.777,114.294,324.385,118.8,321.789,126.545z"/>
						<path style="fill:#FFFFFF;" d="M338.301,116.479c-1.821-0.608-3.715-0.698-5.548-0.334c0.906,0.044,1.807,0.211,2.697,0.506
							c6.183,2.076,9.202,9.706,6.743,17.051c-2.463,7.345-9.471,11.615-15.654,9.544c-0.155-0.054-0.315-0.108-0.466-0.171
							c0.852,0.615,1.8,1.109,2.831,1.453c6.522,2.184,13.915-2.322,16.511-10.067C348.011,126.716,344.827,118.667,338.301,116.479
							z"/>
						
							<path style="fill:none;stroke:#263238;stroke-width:2.5;stroke-linecap:round;stroke-linejoin:round;stroke-miterlimit:10;" d="
							M321.789,126.545c-2.595,7.745,0.59,15.796,7.114,17.982c6.524,2.186,13.917-2.32,16.512-10.066
							c2.595-7.745-0.589-15.796-7.114-17.982C331.777,114.294,324.385,118.8,321.789,126.545z"/>
					</g>
					
						<path style="fill:#FFFFFF;stroke:#263238;stroke-width:2.5;stroke-linecap:round;stroke-linejoin:round;stroke-miterlimit:10;" d="
						M348.489,134.164c-17.957-2.452-15.65-19.843-15.65-19.843s7.462-1.58,12.45,1.989c4.988,3.569,7.213,10.255,7.213,10.255"/>
					
						<path style="fill:#FFFFFF;stroke:#263238;stroke-width:2.5;stroke-linecap:round;stroke-linejoin:round;stroke-miterlimit:10;" d="
						M332.195,114.337c0,0-1.095,10.293-13.622,17.601c0,0,0.073-6.963,4.009-12.561
						C326.516,113.779,332.195,114.337,332.195,114.337z"/>
				</g>
			</g>
			<path style="fill:none;stroke:#263238;stroke-width:2.5;stroke-linecap:round;stroke-linejoin:round;stroke-miterlimit:10;" d="
				M307.146,211.47c10.209,0.574,13.663-4.253,26.764-3.666"/>
			<path style="fill:none;stroke:#263238;stroke-width:2.5;stroke-linecap:round;stroke-linejoin:round;stroke-miterlimit:10;" d="
				M324.746,213.224c0,0,5.947-1.908,12.078,0.924"/>
		</g>
		<g>
			
				<path style="fill:#FFFFFF;stroke:#263238;stroke-width:2.5;stroke-linecap:round;stroke-linejoin:round;stroke-miterlimit:10;" d="
				M312.201,263.603h-40.859c-11.012,0-20.19,8.424-21.137,19.385l-15.769,181.814h9.555l3.168-36.703h76.686v37.345h9.565V284.811
				C333.41,273.097,323.916,263.603,312.201,263.603z M259.689,282.682c0.469-5.389,4.981-9.525,10.391-9.525h43.345
				c5.755,0,10.421,4.665,10.421,10.421v17.531h-65.745L259.689,282.682z M323.845,418.533h-75.779l9.128-107.858h66.652V418.533z"
				/>
			
				<circle style="fill:#263238;stroke:#263238;stroke-width:2.5;stroke-linecap:round;stroke-linejoin:round;stroke-miterlimit:10;" cx="238.701" cy="463" r="13.798"/>
			
				<polygon style="fill:#263238;stroke:#263238;stroke-width:2.5;stroke-linecap:round;stroke-linejoin:round;stroke-miterlimit:10;" points="
				334.794,476.798 322.183,476.798 323.201,458.239 333.776,458.239 			"/>
		</g>
		<g>
			<g>
				
					<path style="fill:#FCD8C3;stroke:#263238;stroke-width:2.5;stroke-linecap:round;stroke-linejoin:round;stroke-miterlimit:10;" d="
					M290.384,284.964c0,0,2.361,9.616,8.8,4.552c0,0,5.469,3.603,10.158,0.063c6.751-5.097,12.737-16.746,15.652-24.512
					c0,0-5.27-22.995-26.433-22.045c-0.128,0.006-16.313,12.852-19.137,20.628h6.662c0,0-3.189,12.028-4.024,16.58
					C281.175,285.057,286.139,287.935,290.384,284.964z"/>
				
					<path style="fill:#FCD8C3;stroke:#263238;stroke-width:2.5;stroke-linecap:round;stroke-linejoin:round;stroke-miterlimit:10;" d="
					M290.384,284.964c2.474-2.172,5.119-9.587,5.119-9.587"/>
				
					<path style="fill:#FCD8C3;stroke:#263238;stroke-width:2.5;stroke-linecap:round;stroke-linejoin:round;stroke-miterlimit:10;" d="
					M299.184,289.516c2.811-2.543,5.558-8.974,5.558-8.974"/>
			</g>
			<g>
				<g>
					<path style="fill:#9ABAE3;" d="M348.78,158.117c-9.529,18.487-13.927,44.115-15.566,50.948c0,0-34.633,31.221-36.034,31.664
						c-1.401,0.444-0.91,4.572,8.074,13.736c8.984,9.164,21.026,7.434,21.725,17.013c0,0,4.938,2.14,10.499-3.455
						c11.254-11.321,27.481-27.573,29.084-29.482c5.79-6.896,17.867-45.238,17.867-45.238"/>
					<path style="fill:#FFFFFF;" d="M384.427,193.307c0,0-12.077,38.34-17.863,45.236c-1.61,1.905-17.828,18.158-29.085,29.476
						c-5.562,5.603-10.503,3.463-10.503,3.463c-0.051-0.672-0.153-1.294-0.316-1.864c1.447-0.55,3.066-1.528,4.737-3.219
						c11.246-11.318,29.512-28.589,31.122-30.494c4.89-5.827,16.059-34.693,20.969-44.462L384.427,193.307z"/>
					
						<path style="fill:none;stroke:#263238;stroke-width:2.5;stroke-linecap:round;stroke-linejoin:round;stroke-miterlimit:10;" d="
						M348.78,158.117c-8.267,21.731-13.927,44.115-15.566,50.948c0,0-34.633,31.221-36.034,31.664
						c-1.401,0.444-0.91,4.572,8.074,13.736c8.984,9.164,21.026,7.434,21.725,17.013c0,0,4.938,2.14,10.499-3.455
						c11.254-11.321,27.481-27.573,29.084-29.482c5.79-6.896,17.867-45.238,17.867-45.238"/>
				</g>
				
					<line style="fill:none;stroke:#263238;stroke-width:2.5;stroke-linecap:round;stroke-linejoin:round;stroke-miterlimit:10;" x1="387.034" y1="200.183" x2="380.299" y2="206.814"/>
			</g>
		</g>
	</g>
</g>
<g id="Speech_Bubble">
	<g>
		
			<path style="fill:#FFFFFF;stroke:#263238;stroke-width:2.5;stroke-linecap:round;stroke-linejoin:round;stroke-miterlimit:10;" d="
			M287.478,61.171c11.48-4.395,26.58-3.186,36.26,4.837c8.62,7.139,11.439,20.045,7.356,30.343
			c-4.87,12.281-18.911,18.979-31.627,16.853c-0.842-0.143,0.735,5.759,4.402,9.075c1.44,1.302,2.88,2.527,4.572,3.389
			c-7.819-0.611-15.46-3.926-17.545-12.336c-9.32-2.914-23.061-11.473-23.414-23.693C267.107,76.943,275.883,65.6,287.478,61.171z"
			/>
		<path style="fill:#EC644E;" d="M300.199,99.447c10.682-5.212,16.467-15.491,12.167-21.001c-3.929-5.042-9.431-2.356-12.167,2.065
			c-2.735-4.421-8.229-7.108-12.159-2.065C283.74,83.956,289.517,94.235,300.199,99.447z"/>
	</g>
</g>
</svg>
